<?xml version="1.0" encoding="UTF-8"?>
<svg id="Object" xmlns="http://www.w3.org/2000/svg" viewBox="0 0 540 540">
  <defs>
    <style>
      .cls-1 {
        fill: #fff;
      }

      .cls-2 {
        fill: #333;
      }
    </style>
  </defs>
  <g>
    <path class="cls-2" d="M455.66,83.21H37.83c-3.45,0-6.24-2.79-6.24-6.24s2.8-6.24,6.24-6.24h417.83c3.45,0,6.24,2.79,6.24,6.24s-2.8,6.24-6.24,6.24Z"/>
    <g>
      <circle class="cls-1" cx="246.74" cy="76.97" r="68.86" transform="translate(70.07 265.64) rotate(-64.21)"/>
      <path class="cls-2" d="M246.75,152.07h-.23c-20.06-.06-38.89-7.93-53.03-22.16-14.14-14.23-21.9-33.11-21.83-53.17.12-41.41,33.91-75.04,75.32-74.87,41.41.13,74.99,33.92,74.87,75.32-.13,41.33-33.8,74.87-75.1,74.87ZM246.74,14.36c-34.44,0-62.51,27.96-62.61,62.43h0c-.05,16.73,6.41,32.47,18.2,44.33,11.79,11.86,27.49,18.42,44.22,18.47h.19c34.44,0,62.51-27.96,62.62-62.43.1-34.52-27.9-62.7-62.43-62.8h-.19ZM177.89,76.76h.04-.04Z"/>
    </g>
    <g>
      <polygon class="cls-1" points="37.83 76.97 69.35 58.78 100.86 40.58 100.86 76.97 100.86 113.36 69.35 95.17 37.83 76.97"/>
      <path class="cls-2" d="M100.86,119.6c-1.08,0-2.15-.28-3.12-.84l-63.03-36.39c-1.93-1.11-3.12-3.17-3.12-5.4s1.19-4.29,3.12-5.4l63.03-36.39c1.93-1.12,4.31-1.12,6.24,0,1.93,1.11,3.12,3.17,3.12,5.4v72.78c0,2.23-1.19,4.29-3.12,5.4-.97.56-2.04.84-3.12.84ZM50.31,76.97l44.31,25.58v-51.16l-44.31,25.58Z"/>
    </g>
    <g>
      <polygon class="cls-1" points="455.66 76.97 424.14 95.17 392.63 113.36 392.63 76.97 392.63 40.58 424.14 58.78 455.66 76.97"/>
      <path class="cls-2" d="M392.62,119.6c-1.08,0-2.15-.28-3.12-.84-1.93-1.11-3.12-3.17-3.12-5.4V40.58c0-2.23,1.19-4.29,3.12-5.4,1.93-1.12,4.31-1.12,6.24,0l63.03,36.39c1.93,1.11,3.12,3.18,3.12,5.4s-1.19,4.29-3.12,5.4l-63.03,36.39c-.97.56-2.04.84-3.12.84ZM398.87,51.39v51.16l44.31-25.58-44.31-25.58Z"/>
    </g>
  </g>
  <g>
    <path class="cls-1" d="M372.34,252.8v-29.71c0-6.95,1.96-13.19,5.95-17.72,3.95-4.49,9.94-7.28,17.93-7.28,15.98,0,25.55,11.11,25.55,25v138.21c0,12.48-2.08,24.09-4.83,33.99-7.61,27.67-11.82,46.68-12.98,72.02-.46,9.36-.08,18.81,1,28.12l.04.25c.92,8.11-3.33,16.1-11.27,20.43-12.9,7.11-36.78,15.77-76.39,15.77-41.94,0-64.65-10.57-75.76-18.51-5.82-4.12-9.19-10.32-9.19-16.85v-.12c-.96-12.15-1.87-17.77-3.7-23.84-6.45-21.51-4.37-21.88-23.26-47.8-14.4-19.76-20.14-62.99-31.16-81.13l-56.21-65.94c-8.36-10.11-10.96-24.15,4.57-36.99,14.4-11.91,28.3-3.03,34.88,2.5l63.82,60.95V102.14c0-6.95,2.83-13.23,7.36-17.81,4.58-4.53,10.86-7.36,17.81-7.36,13.6,0,24.67,10.82,25.13,24.3v151.53h.04l-.04-62.47c0-13.9,11.27-25.17,25.17-25.17h0c13.9,0,25.17,11.27,25.17,25.17l.04,62.47v-46.76c0-13.9,11.27-25.17,25.17-25.17,6.95,0,13.23,2.83,17.81,7.36,4.54,4.58,7.36,10.86,7.36,17.81v46.76Z"/>
    <path class="cls-2" d="M317.33,538.13c-42.88,0-66.84-10.7-79.4-19.68-7.49-5.3-11.8-13.3-11.8-21.93-.87-10.97-1.71-16.45-3.44-22.16-1.04-3.46-1.85-6.37-2.57-8.93-3.65-13-4.51-16.09-19.75-37-8.57-11.77-13.97-30.11-19.19-47.85-3.9-13.27-7.6-25.81-12.01-33.3l-55.87-65.55c-9.87-11.93-13.6-30.18,5.34-45.85,12.78-10.57,28.4-9.64,42.87,2.54l53.57,51.14V102.14c0-8.35,3.25-16.23,9.17-22.2,6.01-5.95,13.89-9.21,22.24-9.21,17.01,0,30.79,13.32,31.37,30.32v64.22c5.27-3.99,11.83-6.36,18.93-6.36,14.41,0,26.59,9.75,30.27,23.01,5.45-4.55,12.47-7.3,20.11-7.3,8.35,0,16.23,3.26,22.2,9.17,3.91,3.95,6.66,8.7,8.09,13.87,5.03-3.82,11.42-5.81,18.77-5.81,18.42,0,31.78,13.14,31.78,31.24v138.21c0,11.57-1.7,23.57-5.05,35.66-7.57,27.52-11.63,46-12.76,70.64-.43,8.8-.1,17.92.97,27.12,1.25,10.98-4.44,21.43-14.45,26.88-13.65,7.53-38.53,16.53-79.38,16.53ZM137.81,240.93c-5.7,0-9.49,3.13-11.22,4.56-13.28,10.99-9.36,21.4-3.73,28.21l56.15,65.87c.22.25.41.52.59.81,5.37,8.84,9.35,22.36,13.57,36.67,4.92,16.72,10.01,34.01,17.31,44.02,15.95,21.89,17.54,26.21,21.68,40.98.7,2.5,1.5,5.34,2.51,8.71,2.02,6.68,2.97,12.79,3.95,25.14.01.16.02.33.02.49,0,4.65,2.39,8.93,6.56,11.88,9.09,6.5,30.51,17.37,72.16,17.37,38.18,0,60.98-8.15,73.37-14.99,5.65-3.07,8.74-8.53,8.09-14.27-1.19-10.11-1.53-19.92-1.07-29.38,1.19-25.8,5.38-44.95,13.2-73.37,3.06-11.01,4.6-21.89,4.6-32.34v-138.21c0-11.4-7.58-18.76-19.3-18.76-5.78,0-10.23,1.74-13.25,5.16-2.87,3.26-4.39,7.97-4.39,13.6v29.71c0,3.45-2.8,6.24-6.24,6.24s-6.24-2.79-6.24-6.24v-46.77c0-5.03-1.97-9.8-5.56-13.41-3.58-3.54-8.34-5.52-13.37-5.52-10.44,0-18.93,8.49-18.93,18.93v46.77c0,3.45-2.79,6.24-6.24,6.24h0c-3.45,0-6.24-2.79-6.24-6.24l-.04-62.47c0-10.44-8.49-18.94-18.93-18.94s-18.93,8.49-18.93,18.93l.04,62.47c0,1.66-.65,3.24-1.83,4.42-1.17,1.17-2.75,1.83-4.41,1.83-3.45,0-6.28-2.79-6.28-6.24V101.27c-.35-10.03-8.64-18.06-18.89-18.06-5.04,0-9.8,1.97-13.42,5.55-3.54,3.58-5.51,8.34-5.51,13.38v201.99c0,2.5-1.49,4.76-3.79,5.74-2.3.98-4.95.5-6.76-1.22l-63.83-60.95c-6.09-5.13-11.23-6.77-15.37-6.77Z"/>
  </g>
</svg>